PathFileType	4	(X/Y/Z)	 0.11m3min.trc
DataRate	CameraRate	NumFrames	NumMarkers	Units	OrigDataRate	OrigDataStartFrame	OrigNumFrames
200	200	9	35	m	200	251	1000
Frame#	Time	C7			LSH			RSH			MAN			RASI			LASI			HIPR			HIPL			RPSI			LPSI			COX			RTHI1			RTHI2			RTHI3			RTHI4			RSHA1			RSHA2			RSHA3			RSHA4			RHEEL			RMET5			RMET1			RTOE			LTHI1			LTHI2			LTHI3			LTHI4			LSHA1			LSHA2			LSHA3			LSHA4			LHEEL			LMET5			LMET1			LTOE			
		X1	Y1	Z1	X2	Y2	Z2	X3	Y3	Z3	X4	Y4	Z4	X5	Y5	Z5	X6	Y6	Z6	X7	Y7	Z7	X8	Y8	Z8	X9	Y9	Z9	X10	Y10	Z10	X11	Y11	Z11	X12	Y12	Z12	X13	Y13	Z13	X14	Y14	Z14	X15	Y15	Z15	X16	Y16	Z16	X17	Y17	Z17	X18	Y18	Z18	X19	Y19	Z19	X20	Y20	Z20	X21	Y21	Z21	X22	Y22	Z22	X23	Y23	Z23	X24	Y24	Z24	X25	Y25	Z25	X26	Y26	Z26	X27	Y27	Z27	X28	Y28	Z28	X29	Y29	Z29	X30	Y30	Z30	X31	Y31	Z31	X32	Y32	Z32	X33	Y33	Z33	X34	Y34	Z34	X35	Y35	Z35	
251	1.2550	-0.375241	1.456079	-0.559176	-0.302602	1.436442	-0.721427	-0.302481	1.442745	-0.389931	-0.255298	1.421423	-0.558257	-0.213701	1.015163	-0.471554	-0.220643	1.032885	-0.662952	-0.253098	1.063637	-0.426542	-0.266949	1.080330	-0.682090	-0.352601	1.063463	-0.488980	-0.353223	1.075453	-0.605102	-0.361008	1.069559	-0.549545	-0.303804	0.808901	-0.382553	-0.287212	0.751497	-0.380516	-0.224785	0.767309	-0.389833	-0.234553	0.827701	-0.393897	-0.346061	0.383189	-0.366350	-0.355573	0.341388	-0.368437	-0.295209	0.334460	-0.370123	-0.289832	0.374672	-0.372052	-0.407124	0.173120	-0.421622	-0.282387	0.069036	-0.371949	-0.248140	0.078582	-0.438215	-0.227831	0.061412	-0.430235	-0.302548	0.833899	-0.739102	-0.285269	0.774697	-0.744000	-0.223096	0.785982	-0.730984	-0.231566	0.845310	-0.724518	-0.356849	0.357065	-0.751758	-0.367405	0.318350	-0.747263	-0.305223	0.308080	-0.748737	-0.303106	0.352079	-0.754236	-0.409079	0.172869	-0.702035	-0.281299	0.078008	-0.762645	-0.246272	0.082202	-0.700438	-0.226043	0.066942	-0.710576	
252	1.2600	-0.375354	1.454504	-0.558859	-0.302272	1.434578	-0.721174	-0.302151	1.440692	-0.389437	-0.255415	1.419676	-0.557906	-0.214553	1.013408	-0.471361	-0.221411	1.031220	-0.662680	-0.254000	1.061744	-0.426410	-0.267663	1.078524	-0.682018	-0.353454	1.061490	-0.488930	-0.353916	1.073583	-0.605029	-0.361787	1.067621	-0.549483	-0.302889	0.807077	-0.382268	-0.286190	0.749705	-0.380509	-0.223856	0.765678	-0.390440	-0.233759	0.826015	-0.394413	-0.345033	0.381896	-0.365763	-0.354860	0.340124	-0.367859	-0.294562	0.332820	-0.370111	-0.288932	0.372993	-0.372069	-0.408150	0.172082	-0.420718	-0.283095	0.068513	-0.371011	-0.249507	0.077058	-0.437702	-0.229142	0.060042	-0.429605	-0.301575	0.832124	-0.739407	-0.283970	0.772964	-0.743973	-0.222019	0.784522	-0.730167	-0.230840	0.843855	-0.723854	-0.356366	0.355943	-0.751967	-0.367238	0.317281	-0.747475	-0.305127	0.306584	-0.748483	-0.302650	0.350552	-0.754055	-0.410281	0.172089	-0.702468	-0.282464	0.076585	-0.761826	-0.248141	0.080522	-0.699190	-0.227873	0.065225	-0.709063	
253	1.2650	-0.375478	1.452664	-0.558519	-0.302028	1.432463	-0.720902	-0.301896	1.438366	-0.388955	-0.255523	1.417689	-0.557544	-0.215377	1.011392	-0.471207	-0.222162	1.029290	-0.662423	-0.254846	1.059605	-0.426288	-0.268341	1.076475	-0.681953	-0.354268	1.059278	-0.488871	-0.354588	1.071493	-0.604945	-0.362561	1.065490	-0.549410	-0.301995	0.805030	-0.382076	-0.285192	0.747694	-0.380548	-0.222958	0.763815	-0.391089	-0.233011	0.824108	-0.394988	-0.343965	0.380367	-0.365166	-0.354126	0.338640	-0.367281	-0.293901	0.330931	-0.370138	-0.288005	0.371067	-0.372122	-0.409254	0.170840	-0.419769	-0.283842	0.067789	-0.370069	-0.250941	0.075334	-0.437171	-0.230519	0.058483	-0.428958	-0.300712	0.830067	-0.739598	-0.282806	0.770948	-0.743867	-0.221064	0.782773	-0.729390	-0.230202	0.842100	-0.723219	-0.355834	0.354632	-0.752174	-0.367038	0.316023	-0.747681	-0.305003	0.304872	-0.748201	-0.302155	0.348810	-0.753834	-0.411521	0.171224	-0.702884	-0.283843	0.074870	-0.760958	-0.250256	0.078473	-0.697899	-0.229977	0.063093	-0.707516	
254	1.2700	-0.375607	1.450561	-0.558160	-0.301870	1.430090	-0.720613	-0.301730	1.435771	-0.388481	-0.255634	1.415440	-0.557175	-0.216178	1.009115	-0.471091	-0.222899	1.027106	-0.662180	-0.255644	1.057214	-0.426177	-0.268990	1.074184	-0.681889	-0.355058	1.056865	-0.488785	-0.355242	1.069184	-0.604846	-0.363310	1.063138	-0.549326	-0.301137	0.802743	-0.381963	-0.284229	0.745472	-0.380619	-0.222085	0.761719	-0.391766	-0.232322	0.821990	-0.395611	-0.342838	0.378607	-0.364533	-0.353365	0.336933	-0.366690	-0.293225	0.328800	-0.370202	-0.287053	0.368894	-0.372212	-0.410443	0.169403	-0.418784	-0.284700	0.066812	-0.369103	-0.252420	0.073442	-0.436617	-0.231951	0.056765	-0.428288	-0.299959	0.827731	-0.739678	-0.281785	0.768657	-0.743694	-0.220232	0.780729	-0.728648	-0.229652	0.840044	-0.722605	-0.355251	0.353127	-0.752375	-0.366804	0.314577	-0.747879	-0.304853	0.302950	-0.747887	-0.301617	0.346849	-0.753575	-0.412803	0.170271	-0.703300	-0.285440	0.072883	-0.760058	-0.252586	0.076097	-0.696596	-0.232328	0.060594	-0.705973	
255	1.2750	-0.375738	1.448162	-0.557767	-0.301795	1.427463	-0.720310	-0.301649	1.432908	-0.388013	-0.255743	1.412923	-0.556799	-0.216966	1.006578	-0.471005	-0.223621	1.024665	-0.661949	-0.256396	1.054576	-0.426074	-0.269618	1.071653	-0.681824	-0.355820	1.054238	-0.488677	-0.355884	1.066652	-0.604735	-0.364061	1.060570	-0.549227	-0.300328	0.800213	-0.381919	-0.283302	0.743030	-0.380722	-0.221245	0.759386	-0.392467	-0.231711	0.819643	-0.396268	-0.341659	0.376619	-0.363875	-0.352576	0.334997	-0.366092	-0.292538	0.326430	-0.370304	-0.286074	0.366466	-0.372353	-0.411716	0.167774	-0.417763	-0.285682	0.065574	-0.368129	-0.253936	0.071401	-0.436040	-0.233421	0.054901	-0.427598	-0.299323	0.825114	-0.739644	-0.280910	0.766095	-0.743456	-0.219518	0.778395	-0.727935	-0.229192	0.837693	-0.722019	-0.354620	0.351420	-0.752555	-0.366536	0.312941	-0.748058	-0.304676	0.300820	-0.747535	-0.301040	0.344670	-0.753276	-0.414132	0.169213	-0.703694	-0.287242	0.070633	-0.759132	-0.255104	0.073429	-0.695309	-0.234894	0.057771	-0.704470	
256	1.2800	-0.375878	1.445467	-0.557357	-0.301790	1.424586	-0.719997	-0.301624	1.429779	-0.387539	-0.255849	1.410143	-0.556417	-0.217741	1.003784	-0.470945	-0.224330	1.021973	-0.661732	-0.257116	1.051692	-0.425970	-0.270230	1.068884	-0.681756	-0.356558	1.051396	-0.488555	-0.356514	1.063894	-0.604613	-0.364820	1.057783	-0.549114	-0.299593	0.797446	-0.381948	-0.282410	0.740339	-0.380862	-0.220448	0.756817	-0.393183	-0.231174	0.817065	-0.396940	-0.340426	0.374415	-0.363214	-0.351758	0.332852	-0.365501	-0.291842	0.323816	-0.370440	-0.285069	0.363801	-0.372524	-0.413072	0.165970	-0.416714	-0.286810	0.064046	-0.367175	-0.255476	0.069237	-0.435446	-0.234922	0.052914	-0.426898	-0.298804	0.822218	-0.739513	-0.280173	0.763256	-0.743149	-0.218915	0.775781	-0.727252	-0.228826	0.835057	-0.721449	-0.353938	0.349506	-0.752683	-0.366245	0.311114	-0.748216	-0.304491	0.298478	-0.747149	-0.300436	0.342267	-0.752936	-0.415507	0.168041	-0.704062	-0.289235	0.068146	-0.758187	-0.257764	0.070529	-0.694068	-0.237631	0.054684	-0.703027	
257	1.2850	-0.376026	1.442478	-0.556937	-0.301850	1.421461	-0.719677	-0.301625	1.426398	-0.387038	-0.255954	1.407096	-0.556030	-0.218512	1.000734	-0.470901	-0.225027	1.019032	-0.661525	-0.257817	1.048564	-0.425864	-0.270830	1.065874	-0.681684	-0.357289	1.048329	-0.488419	-0.357145	1.060900	-0.604481	-0.365543	1.054755	-0.548979	-0.298931	0.794406	-0.382006	-0.281564	0.737371	-0.381034	-0.219692	0.754003	-0.393913	-0.230718	0.814241	-0.397616	-0.339153	0.371980	-0.362552	-0.350920	0.330547	-0.364918	-0.291150	0.320977	-0.370604	-0.284044	0.360898	-0.372722	-0.414503	0.164001	-0.415638	-0.288110	0.062213	-0.366272	-0.257041	0.066972	-0.434869	-0.236463	0.050819	-0.426217	-0.298397	0.819058	-0.739293	-0.279559	0.760150	-0.742778	-0.218414	0.772903	-0.726598	-0.228552	0.832143	-0.720894	-0.353219	0.347380	-0.752763	-0.365939	0.309103	-0.748339	-0.304305	0.295919	-0.746721	-0.299812	0.339656	-0.752556	-0.416928	0.166739	-0.704395	-0.291402	0.065441	-0.757230	-0.260548	0.067426	-0.692878	-0.240506	0.051372	-0.701654	
258	1.2900	-0.376176	1.439200	-0.556517	-0.301960	1.418089	-0.719349	-0.301630	1.422758	-0.386520	-0.256057	1.403779	-0.555636	-0.219278	0.997444	-0.470870	-0.225716	1.015850	-0.661326	-0.258503	1.045195	-0.425751	-0.271429	1.062620	-0.681604	-0.358011	1.045049	-0.488268	-0.357777	1.057672	-0.604344	-0.366268	1.051480	-0.548833	-0.298358	0.791086	-0.382091	-0.280755	0.734124	-0.381249	-0.218976	0.750952	-0.394649	-0.230340	0.811163	-0.398290	-0.337854	0.369310	-0.361904	-0.350073	0.328040	-0.364334	-0.290469	0.317923	-0.370789	-0.283015	0.357763	-0.372944	-0.416010	0.161885	-0.414556	-0.289599	0.060043	-0.365458	-0.258639	0.064626	-0.434352	-0.238047	0.048645	-0.425606	-0.298096	0.815629	-0.738991	-0.279058	0.756784	-0.742352	-0.218011	0.769760	-0.725965	-0.228367	0.828971	-0.720352	-0.352489	0.345049	-0.752792	-0.365633	0.306905	-0.748422	-0.304139	0.293146	-0.746248	-0.299184	0.336834	-0.752139	-0.418402	0.165288	-0.704677	-0.293722	0.062550	-0.756264	-0.263426	0.064143	-0.691730	-0.243502	0.047873	-0.700347	
259	1.2950	-0.376329	1.435640	-0.556094	-0.302106	1.414477	-0.719015	-0.301581	1.418860	-0.386010	-0.256155	1.400190	-0.555234	-0.220043	0.993915	-0.470844	-0.226402	1.012420	-0.661133	-0.259181	1.041593	-0.425634	-0.272034	1.059122	-0.681513	-0.358719	1.041528	-0.488111	-0.358422	1.054196	-0.604203	-0.367012	1.047970	-0.548679	-0.297876	0.787475	-0.382215	-0.279980	0.730582	-0.381512	-0.218330	0.747676	-0.395397	-0.230044	0.807820	-0.398956	-0.336566	0.366454	-0.361346	-0.349230	0.325340	-0.363774	-0.289813	0.314647	-0.370986	-0.281996	0.354407	-0.373186	-0.417581	0.159628	-0.413471	-0.291180	0.057577	-0.364841	-0.260302	0.062202	-0.433960	-0.239694	0.046399	-0.425133	-0.297899	0.811938	-0.738617	-0.278655	0.753160	-0.741876	-0.217690	0.766373	-0.725357	-0.228267	0.825546	-0.719828	-0.351760	0.342528	-0.752767	-0.365339	0.304522	-0.748454	-0.304001	0.290164	-0.745728	-0.298568	0.333801	-0.751674	-0.419928	0.163669	-0.704878	-0.296165	0.059498	-0.755290	-0.266384	0.060690	-0.690605	-0.246588	0.044220	-0.699104	
